<?xml version="1.0" standalone="no"?>
<!DOCTYPE svg PUBLIC "-//W3C//DTD SVG 20010904//EN"
 "http://www.w3.org/TR/2001/REC-SVG-20010904/DTD/svg10.dtd">
<svg version="1.0" xmlns="http://www.w3.org/2000/svg"
 width="241.000000pt" height="45.000000pt" viewBox="0 0 241.000000 45.000000"
 preserveAspectRatio="xMidYMid meet">

<g transform="translate(0.000000,45.000000) scale(0.100000,-0.100000)"
fill="#000000" stroke="none">
<path d="M480 313 l0 -98 -145 -39 c-80 -21 -145 -42 -145 -46 0 -4 64 4 143
16 78 13 143 24 145 24 1 0 2 -29 2 -65 0 -37 4 -65 10 -65 6 0 10 28 10 65 0
60 2 65 24 71 33 8 43 0 48 -35 3 -22 0 -31 -11 -34 -9 -3 2 -5 24 -5 22 0 33
2 24 5 -11 3 -14 12 -11 34 5 35 15 43 48 35 22 -6 24 -11 24 -71 0 -37 4 -65
10 -65 6 0 10 28 10 65 0 36 1 65 3 65 1 0 66 -11 145 -24 78 -12 142 -20 142
-16 0 4 -65 25 -145 46 l-145 39 0 98 c0 58 -4 97 -10 97 -5 0 -10 -7 -10 -16
0 -13 -7 -15 -37 -10 -21 3 -42 6 -48 6 -5 0 -27 -3 -47 -6 -31 -5 -38 -3 -38
10 0 9 -4 16 -10 16 -6 0 -10 -39 -10 -97z m90 -2 c0 -61 -7 -74 -47 -84 -22
-5 -23 -3 -23 69 l0 74 35 0 35 0 0 -59z m100 -15 c0 -72 -1 -74 -22 -69 -40
10 -48 24 -48 78 0 60 3 65 42 65 l28 0 0 -74z"/>
<path d="M1115 310 c-82 -9 -115 -37 -115 -98 0 -44 32 -66 95 -67 51 -1 54 0
59 28 10 51 8 57 -24 57 -24 0 -30 -4 -30 -22 0 -17 -3 -19 -9 -9 -7 11 -9 11
-14 0 -3 -8 -6 -3 -6 12 -1 34 16 49 56 49 33 0 48 15 41 42 -2 9 -17 12 -53
8z"/>
<path d="M1575 312 c-64 -3 -74 -11 -76 -57 l-1 -30 -9 30 c-11 40 -34 55 -82
55 -29 0 -45 -7 -68 -29 -16 -16 -29 -38 -29 -48 0 -15 -2 -16 -11 -3 -9 12
-10 11 -6 -7 4 -18 1 -23 -14 -23 -10 0 -19 6 -19 13 0 8 -4 7 -11 -3 -8 -12
-9 -11 -5 5 3 11 8 37 12 58 6 37 6 37 -28 37 -34 0 -35 0 -47 -62 -6 -35 -14
-75 -18 -91 l-5 -27 73 2 74 2 -70 6 -70 6 68 2 c40 1 67 6 67 13 0 6 6 9 13
6 6 -2 11 -9 10 -14 -3 -13 54 -14 95 -1 20 6 41 23 53 42 l19 31 -6 -47 -7
-48 34 1 34 1 -30 8 -30 8 33 1 c27 1 32 5 32 27 0 16 5 24 13 21 6 -2 11 -14
9 -25 -3 -19 2 -22 33 -22 l37 0 -4 40 c-2 26 1 41 9 44 7 3 13 13 14 23 0 10
7 2 14 -17 7 -19 11 -52 8 -72 -6 -38 -5 -38 28 -37 l34 1 -30 8 -30 8 33 1
c24 1 32 6 32 19 0 10 18 44 40 76 22 31 40 59 40 61 0 2 -15 5 -32 7 -29 3
-35 -1 -50 -32 l-16 -35 -1 33 c-1 30 -3 32 -35 32 -19 0 -40 1 -48 3 -7 2
-40 1 -73 -1z m-162 -88 c-5 -15 -15 -30 -21 -32 -16 -5 -16 50 0 66 19 19 32
-2 21 -34z m177 29 c0 -15 -2 -16 -10 -3 -8 12 -10 12 -10 1 0 -8 -3 -12 -6
-8 -8 7 4 27 17 27 5 0 9 -8 9 -17z"/>
<path d="M1812 230 c-24 -47 -43 -88 -43 -92 1 -5 16 -8 35 -8 28 0 35 4 38
23 4 26 48 38 48 13 0 -12 11 -16 38 -17 l37 -2 -40 -7 c-33 -6 -26 -7 35 -7
57 0 67 1 40 7 l-35 7 32 2 c30 1 32 3 43 59 6 31 14 67 17 80 5 20 1 22 -30
22 l-36 0 -13 -77 c-14 -84 -12 -87 -33 39 -5 34 -8 36 -48 40 l-42 3 -43 -85z
m78 5 c0 -8 -4 -15 -10 -15 -5 0 -7 7 -4 15 4 8 8 15 10 15 2 0 4 -7 4 -15z
m-67 -92 c-7 -2 -21 -2 -30 0 -10 3 -4 5 12 5 17 0 24 -2 18 -5z"/>
<path d="M2056 228 c-9 -46 -16 -86 -16 -90 0 -5 17 -7 38 -7 l37 2 -35 7 -35
7 33 2 c23 1 32 6 33 19 0 15 2 14 10 -3 8 -17 9 -16 6 8 -3 15 0 27 4 27 5 0
9 -11 9 -25 0 -22 4 -25 35 -25 29 0 35 4 35 21 0 11 -5 29 -10 40 -7 12 -7
19 -1 19 6 0 15 9 21 21 9 16 8 25 -6 40 -13 15 -31 19 -79 19 l-62 0 -17 -82z
m94 27 c0 -8 -7 -15 -15 -15 -9 0 -12 6 -9 15 4 8 10 15 15 15 5 0 9 -7 9 -15z"/>
</g>
</svg>
