<svg width="55" height="55" viewBox="0 0 55 55" fill="none" xmlns="http://www.w3.org/2000/svg">
<g clip-path="url(#clip0_6_10)">
<path fill-rule="evenodd" clip-rule="evenodd" d="M26.5856 14.41C22.5913 11.6944 17.1875 14.5544 17.1875 19.3875V35.6194C17.1875 40.4491 22.5913 43.3091 26.5856 40.5934L38.5206 32.4809C39.3324 31.9294 39.9969 31.1876 40.4561 30.3203C40.9154 29.453 41.1555 28.4865 41.1555 27.5051C41.1555 26.5238 40.9154 25.5573 40.4561 24.69C39.9969 23.8227 39.3324 23.0809 38.5206 22.5294L26.5856 14.4169V14.41ZM22.3437 19.3875C22.3437 18.7 23.1172 18.2875 23.6844 18.6794L35.6194 26.7919C35.7356 26.8706 35.8308 26.9766 35.8967 27.1007C35.9625 27.2247 35.9969 27.363 35.9969 27.5034C35.9969 27.6439 35.9625 27.7821 35.8967 27.9062C35.8308 28.0302 35.7356 28.1363 35.6194 28.215L23.6878 36.3275C23.5588 36.4156 23.4082 36.4669 23.2522 36.4758C23.0962 36.4847 22.9408 36.451 22.8026 36.3781C22.6643 36.3053 22.5486 36.1962 22.4677 36.0625C22.3869 35.9288 22.344 35.7756 22.3437 35.6194V19.3875Z" fill="#1C274C"/>
<path fill-rule="evenodd" clip-rule="evenodd" d="M24.9219 1.88093e-08C23.3394 -0.00012503 21.8207 0.623271 20.6947 1.73511C19.5687 2.84696 18.9261 4.3577 18.9062 5.94C18.7138 6.01762 18.5225 6.09784 18.3322 6.18062C17.1994 5.07487 15.6764 4.46018 14.0935 4.46984C12.5105 4.47949 10.9951 5.1127 9.87594 6.23219L6.23219 9.87594C5.1127 10.9951 4.47949 12.5105 4.46984 14.0935C4.46018 15.6764 5.07487 17.1994 6.18062 18.3322C6.09784 18.5225 6.01762 18.7138 5.94 18.9062C4.3577 18.9261 2.84696 19.5687 1.73511 20.6947C0.623271 21.8207 -0.00012503 23.3394 1.88093e-08 24.9219V30.0781C1.88093e-08 33.3781 2.65375 36.0525 5.94 36.0938L6.18062 36.6678C5.07487 37.8006 4.46018 39.3236 4.46984 40.9065C4.47949 42.4895 5.1127 44.0049 6.23219 45.1241L9.87594 48.7678C10.9951 49.8873 12.5105 50.5205 14.0935 50.5302C15.6764 50.5398 17.1994 49.9251 18.3322 48.8194L18.9062 49.06C18.9261 50.6423 19.5687 52.153 20.6947 53.2649C21.8207 54.3767 23.3394 55.0001 24.9219 55H30.0781C31.6606 55.0001 33.1793 54.3767 34.3053 53.2649C35.4313 52.153 36.0739 50.6423 36.0938 49.06L36.6678 48.8194C37.8006 49.9251 39.3236 50.5398 40.9065 50.5302C42.4895 50.5205 44.0049 49.8873 45.1241 48.7678L48.7678 45.1241C49.8873 44.0049 50.5205 42.4895 50.5302 40.9065C50.5398 39.3236 49.9251 37.8006 48.8194 36.6678L49.06 36.0938C50.6423 36.0739 52.153 35.4313 53.2649 34.3053C54.3767 33.1793 55.0001 31.6606 55 30.0781V24.9219C55.0001 23.3394 54.3767 21.8207 53.2649 20.6947C52.153 19.5687 50.6423 18.9261 49.06 18.9062C48.9826 18.7137 48.9024 18.5224 48.8194 18.3322C49.9251 17.1994 50.5398 15.6764 50.5302 14.0935C50.5205 12.5105 49.8873 10.9951 48.7678 9.87594L45.1241 6.23219C44.0049 5.1127 42.4895 4.47949 40.9065 4.46984C39.3236 4.46018 37.8006 5.07487 36.6678 6.18062C36.4775 6.09787 36.2862 6.01765 36.0938 5.94C36.0739 4.3577 35.4313 2.84696 34.3053 1.73511C33.1793 0.623271 31.6606 -0.00012503 30.0781 1.88093e-08L24.9219 1.88093e-08ZM24.0625 6.01562C24.0625 5.7877 24.153 5.56912 24.3142 5.40796C24.4754 5.24679 24.694 5.15625 24.9219 5.15625H30.0781C30.306 5.15625 30.5246 5.24679 30.6858 5.40796C30.847 5.56912 30.9375 5.7877 30.9375 6.01562V7.76875C30.9375 8.90313 31.68 9.9 32.7662 10.2334C33.8869 10.5772 34.9663 11.0241 35.9838 11.5672C36.4715 11.8281 37.0303 11.9251 37.5775 11.844C38.1247 11.7629 38.6313 11.508 39.0225 11.1169L40.26 9.87938C40.3398 9.79934 40.4347 9.73585 40.5391 9.69253C40.6435 9.6492 40.7554 9.6269 40.8684 9.6269C40.9815 9.6269 41.0934 9.6492 41.1978 9.69253C41.3022 9.73585 41.397 9.79934 41.4769 9.87938L45.1206 13.5231C45.2007 13.603 45.2642 13.6978 45.3075 13.8022C45.3508 13.9066 45.3731 14.0185 45.3731 14.1316C45.3731 14.2446 45.3508 14.3565 45.3075 14.4609C45.2642 14.5653 45.2007 14.6602 45.1206 14.74L43.8831 15.9775C43.492 16.3687 43.2371 16.8753 43.156 17.4225C43.0749 17.9697 43.1719 18.5285 43.4328 19.0163C43.9759 20.0338 44.4262 21.1131 44.7666 22.2337C44.9273 22.763 45.2541 23.2265 45.6985 23.5558C46.143 23.8851 46.6815 24.0628 47.2347 24.0625H48.9844C49.2123 24.0625 49.4309 24.153 49.592 24.3142C49.7532 24.4754 49.8438 24.694 49.8438 24.9219V30.0781C49.8438 30.306 49.7532 30.5246 49.592 30.6858C49.4309 30.847 49.2123 30.9375 48.9844 30.9375H47.2312C46.6787 30.938 46.1409 31.1159 45.6971 31.4452C45.2534 31.7744 44.9272 32.2375 44.7666 32.7662C44.4228 33.8869 43.9759 34.9663 43.4328 35.9838C43.1719 36.4715 43.0749 37.0303 43.156 37.5775C43.2371 38.1247 43.492 38.6313 43.8831 39.0225L45.1206 40.26C45.2007 40.3398 45.2642 40.4347 45.3075 40.5391C45.3508 40.6435 45.3731 40.7554 45.3731 40.8684C45.3731 40.9815 45.3508 41.0934 45.3075 41.1978C45.2642 41.3022 45.2007 41.397 45.1206 41.4769L41.4769 45.1206C41.397 45.2007 41.3022 45.2642 41.1978 45.3075C41.0934 45.3508 40.9815 45.3731 40.8684 45.3731C40.7554 45.3731 40.6435 45.3508 40.5391 45.3075C40.4347 45.2642 40.3398 45.2007 40.26 45.1206L39.0225 43.8831C38.6313 43.492 38.1247 43.2371 37.5775 43.156C37.0303 43.0749 36.4715 43.1719 35.9838 43.4328C34.9663 43.9759 33.8869 44.4262 32.7662 44.7666C32.237 44.9273 31.7735 45.2541 31.4442 45.6985C31.1149 46.143 30.9372 46.6815 30.9375 47.2347V48.9844C30.9375 49.2123 30.847 49.4309 30.6858 49.592C30.5246 49.7532 30.306 49.8438 30.0781 49.8438H24.9219C24.694 49.8438 24.4754 49.7532 24.3142 49.592C24.153 49.4309 24.0625 49.2123 24.0625 48.9844V47.2312C24.062 46.6787 23.8841 46.1409 23.5548 45.6971C23.2256 45.2534 22.7625 44.9272 22.2337 44.7666C21.1131 44.4228 20.0338 43.9759 19.0163 43.4328C18.5285 43.1719 17.9697 43.0749 17.4225 43.156C16.8753 43.2371 16.3687 43.492 15.9775 43.8831L14.74 45.1206C14.6602 45.2007 14.5653 45.2642 14.4609 45.3075C14.3565 45.3508 14.2446 45.3731 14.1316 45.3731C14.0185 45.3731 13.9066 45.3508 13.8022 45.3075C13.6978 45.2642 13.603 45.2007 13.5231 45.1206L9.87938 41.4769C9.79934 41.397 9.73585 41.3022 9.69253 41.1978C9.6492 41.0934 9.6269 40.9815 9.6269 40.8684C9.6269 40.7554 9.6492 40.6435 9.69253 40.5391C9.73585 40.4347 9.79934 40.3398 9.87938 40.26L11.1169 39.0225C11.508 38.6313 11.7629 38.1247 11.844 37.5775C11.9251 37.0303 11.8281 36.4715 11.5672 35.9838C11.0192 34.9571 10.5725 33.8795 10.2334 32.7662C10.0727 32.237 9.74591 31.7735 9.30147 31.4442C8.85703 31.1149 8.31846 30.9372 7.76531 30.9375H6.01562C5.7877 30.9375 5.56912 30.847 5.40796 30.6858C5.24679 30.5246 5.15625 30.306 5.15625 30.0781V24.9219C5.15625 24.694 5.24679 24.4754 5.40796 24.3142C5.56912 24.153 5.7877 24.0625 6.01562 24.0625H7.76875C8.32131 24.062 8.8591 23.8841 9.30285 23.5548C9.7466 23.2256 10.0728 22.7625 10.2334 22.2337C10.5772 21.1131 11.0241 20.0338 11.5672 19.0163C11.8281 18.5285 11.9251 17.9697 11.844 17.4225C11.7629 16.8753 11.508 16.3687 11.1169 15.9775L9.87938 14.74C9.79934 14.6602 9.73585 14.5653 9.69253 14.4609C9.6492 14.3565 9.6269 14.2446 9.6269 14.1316C9.6269 14.0185 9.6492 13.9066 9.69253 13.8022C9.73585 13.6978 9.79934 13.603 9.87938 13.5231L13.5231 9.87938C13.603 9.79934 13.6978 9.73585 13.8022 9.69253C13.9066 9.6492 14.0185 9.6269 14.1316 9.6269C14.2446 9.6269 14.3565 9.6492 14.4609 9.69253C14.5653 9.73585 14.6602 9.79934 14.74 9.87938L15.9775 11.1169C16.3687 11.508 16.8753 11.7629 17.4225 11.844C17.9697 11.9251 18.5285 11.8281 19.0163 11.5672C20.0338 11.0241 21.1131 10.5737 22.2337 10.2334C22.763 10.0727 23.2265 9.74591 23.5558 9.30147C23.8851 8.85703 24.0628 8.31846 24.0625 7.76531V6.01562Z" fill="#1C274C"/>
</g>
<defs>
<clipPath id="clip0_6_10">
<rect width="55" height="55" fill="white"/>
</clipPath>
</defs>
</svg>
