<svg width="55" height="55" viewBox="0 0 55 55" fill="none" xmlns="http://www.w3.org/2000/svg">
<path fill-rule="evenodd" clip-rule="evenodd" d="M22.4073 48.125H32.5925C39.745 48.125 43.3211 48.125 45.8901 46.4397C47.002 45.71 47.9569 44.7725 48.7001 43.6808C50.4166 41.1586 50.4166 37.6473 50.4166 30.6249C50.4166 23.6028 50.4166 20.0915 48.7001 17.5693C47.9569 16.4774 47.002 15.5399 45.8901 14.8103C44.2392 13.7274 42.1728 13.3403 39.0087 13.202C37.4987 13.202 36.1989 12.0786 35.9028 10.625C35.4584 8.44454 33.5084 6.875 31.2438 6.875H23.756C21.4913 6.875 19.5413 8.44454 19.0971 10.625C18.801 12.0786 17.501 13.202 15.9912 13.202C12.8271 13.3403 10.7606 13.7274 9.10984 14.8103C7.99772 15.5399 7.04285 16.4774 6.29976 17.5693C4.58325 20.0915 4.58325 23.6028 4.58325 30.6249C4.58325 37.6473 4.58325 41.1586 6.29976 43.6808C7.04285 44.7725 7.99772 45.71 9.10984 46.4397C11.6788 48.125 15.255 48.125 22.4073 48.125ZM27.4999 21.25C22.2264 21.25 17.9513 25.4474 17.9513 30.6249C17.9513 35.8027 22.2264 39.9999 27.4999 39.9999C32.7735 39.9999 37.0486 35.8027 37.0486 30.6249C37.0486 25.4474 32.7735 21.25 27.4999 21.25ZM27.4999 25C24.3358 25 21.7708 27.5183 21.7708 30.6249C21.7708 33.7315 24.3358 36.25 27.4999 36.25C30.664 36.25 33.2291 33.7315 33.2291 30.6249C33.2291 27.5183 30.664 25 27.4999 25ZM38.3216 23.125C38.3216 22.0895 39.1766 21.25 40.2315 21.25H42.7778C43.8324 21.25 44.6874 22.0895 44.6874 23.125C44.6874 24.1606 43.8324 25 42.7778 25H40.2315C39.1766 25 38.3216 24.1606 38.3216 23.125Z" fill="#1C274C"/>
</svg>
