<svg width="55" height="55" viewBox="0 0 55 55" fill="none" xmlns="http://www.w3.org/2000/svg">
<path d="M30.4214 20.5373C31.3809 20.2637 32.0833 19.3805 32.0833 18.3332C32.0833 17.0676 31.0573 16.0416 29.7916 16.0416C28.526 16.0416 27.5 17.0676 27.5 18.3332C27.5 18.9661 27.7564 19.539 28.1712 19.9537M30.4214 20.5373C30.2213 20.5944 30.01 20.6249 29.7916 20.6249C29.1589 20.6249 28.586 20.3684 28.1712 19.9537M30.4214 20.5373L33.7452 32.1709M28.1712 19.9537L19.9538 28.1712M33.7452 32.1709C33.9453 32.1138 34.1566 32.0833 34.375 32.0833C35.6407 32.0833 36.6666 33.1093 36.6666 34.375C36.6666 35.6407 35.6407 36.6666 34.375 36.6666C33.1093 36.6666 32.0833 35.6407 32.0833 34.375C32.0833 34.1566 32.1138 33.9453 32.1709 33.7452M33.7452 32.1709C32.9858 32.3874 32.3874 32.9858 32.1709 33.7452M19.9538 28.1712C20.3685 28.5858 20.625 29.1587 20.625 29.7916C20.625 30.01 20.5944 30.2213 20.5374 30.4214M19.9538 28.1712C19.539 27.7564 18.9661 27.5 18.3333 27.5C17.0677 27.5 16.0416 28.526 16.0416 29.7916C16.0416 31.0573 17.0677 32.0833 18.3333 32.0833C19.3806 32.0833 20.2638 31.3807 20.5374 30.4214M32.1709 33.7452L20.5374 30.4214M20.2759 47.3463H34.7247C36.2672 47.3463 37.0384 47.3463 37.7288 47.1219C38.3398 46.9235 38.9019 46.599 39.3793 46.169C39.9188 45.6834 40.3044 45.0154 41.0756 43.6796L48.3001 31.1666C49.0712 29.8308 49.4569 29.1628 49.6079 28.4529C49.7413 27.8245 49.7413 27.1752 49.6079 26.5471C49.4569 25.8369 49.0712 25.1691 48.3001 23.8333L41.0756 11.3202C40.3044 9.9844 39.9188 9.3165 39.3793 8.83076C38.9019 8.40098 38.3398 8.07632 37.7288 7.87783C37.0384 7.6535 36.2672 7.6535 34.7247 7.6535H20.2759C18.7335 7.6535 17.9623 7.6535 17.2719 7.87783C16.661 8.07632 16.0987 8.40098 15.6214 8.83076C15.0819 9.3165 14.6963 9.9844 13.9251 11.3202L6.70063 23.8333C5.92942 25.1691 5.54382 25.8369 5.39289 26.5471C5.25934 27.1752 5.25934 27.8245 5.39289 28.4529C5.54382 29.1628 5.92942 29.8308 6.70063 31.1666L13.9251 43.6796C14.6963 45.0154 15.0819 45.6834 15.6214 46.169C16.0987 46.599 16.661 46.9235 17.2719 47.1219C17.9623 47.3463 18.7335 47.3463 20.2759 47.3463Z" stroke="#1C274C" stroke-width="5" stroke-linecap="round" stroke-linejoin="round"/>
</svg>
