<svg width="51" height="47" viewBox="0 0 51 47" fill="none" xmlns="http://www.w3.org/2000/svg">
<path d="M17.87 34.3705L21.5057 30.7348C22.6836 31.3696 23.9864 31.6916 25.2904 31.6916C27.3334 31.6916 29.3764 30.9124 30.9348 29.3541C36.5791 23.7097 35.7725 13.2276 35.7725 13.2276C35.7725 13.2276 35.2557 13.1875 34.3883 13.1875C31.353 13.1875 24.0369 13.6756 19.646 18.0653C17.092 20.6194 16.6336 24.4717 18.2641 27.4955L14.6284 31.1301L17.87 34.3705Z" fill="#1C274C"/>
<path d="M15.2128 16.2491L13.4333 12.0256L10.2433 13.3697C13.5972 8.34633 19.3229 5.16665 25.5001 5.16665C35.6086 5.16665 43.8334 13.3914 43.8334 23.5H48.4168C48.4168 10.8637 38.1364 0.583313 25.5001 0.583313C17.5045 0.583313 10.123 4.84925 6.00375 11.5169L4.87281 8.17102L0.53125 9.63883L4.31823 20.8382L15.2128 16.2491Z" fill="#1C274C"/>
<path d="M35.7875 30.7508L37.5669 34.9744L40.7569 33.6303C37.4031 38.6536 31.6773 41.8333 25.5002 41.8333C15.3916 41.8333 7.16683 33.6085 7.16683 23.5H2.5835C2.5835 36.1362 12.8639 46.4167 25.5002 46.4167C33.4958 46.4167 40.8772 42.1507 44.9965 35.4831L46.1275 38.829L50.469 37.3611L46.682 26.1618L35.7875 30.7508Z" fill="#1C274C"/>
</svg>
