<svg width="55" height="55" viewBox="0 0 55 55" fill="none" xmlns="http://www.w3.org/2000/svg">
<g clip-path="url(#clip0_6_4)">
<path d="M38.9584 38.9583C38.9584 40.9115 38.4592 42.8322 37.508 44.5381C36.5569 46.244 35.1855 47.6785 33.5241 48.7053C31.8626 49.7322 29.9663 50.3173 28.0151 50.4051C26.0639 50.4929 24.1227 50.0804 22.3758 49.207C20.6288 48.3335 19.1341 47.0279 18.0337 45.4143C16.9332 43.8007 16.2635 41.9326 16.0881 39.9873C15.9126 38.0421 16.2374 36.0843 17.0315 34.2998C17.8255 32.5154 19.0626 30.9635 20.6251 29.7916V11.4583C20.6251 9.63495 21.3494 7.88627 22.6387 6.59695C23.928 5.30764 25.6767 4.58331 27.5001 4.58331C29.3234 4.58331 31.0721 5.30764 32.3614 6.59695C33.6508 7.88627 34.3751 9.63495 34.3751 11.4583V29.7916C35.7982 30.859 36.9532 32.2429 37.7487 33.834C38.5443 35.425 38.9584 37.1795 38.9584 38.9583ZM25.2084 18.3333V32.4729C23.6794 33.0135 22.3907 34.0772 21.5701 35.4761C20.7495 36.8749 20.4498 38.5189 20.7241 40.1173C20.9983 41.7157 21.8288 43.1657 23.0688 44.211C24.3087 45.2564 25.8783 45.8297 27.5001 45.8297C29.1219 45.8297 30.6914 45.2564 31.9314 44.211C33.1713 43.1657 34.0018 41.7157 34.2761 40.1173C34.5503 38.5189 34.2507 36.8749 33.4301 35.4761C32.6095 34.0772 31.3208 33.0135 29.7918 32.4729V18.3333H25.2084Z" fill="#1C274C"/>
</g>
<defs>
<clipPath id="clip0_6_4">
<rect width="55" height="55" fill="white"/>
</clipPath>
</defs>
</svg>
